<svg width="30" height="15" viewBox="0 0 30 15" fill="none" xmlns="http://www.w3.org/2000/svg">
<path d="M5.62498 8.74998C3.9025 8.74998 2.5 10.1525 2.5 11.875C2.5 13.5974 3.9025 15 5.62498 15C7.34747 15 8.74997 13.5975 8.74997 11.875C8.74997 10.1525 7.34747 8.74998 5.62498 8.74998ZM5.62498 13.75C4.59121 13.75 3.74998 12.9088 3.74998 11.875C3.74998 10.8413 4.59121 10 5.62498 10C6.65875 10 7.49999 10.8413 7.49999 11.875C7.49999 12.9087 6.65875 13.75 5.62498 13.75Z" fill="black"/>
<path d="M24.375 8.74998C22.6525 8.74998 21.25 10.1525 21.25 11.875C21.25 13.5974 22.6525 15 24.375 15C26.0975 15 27.5 13.5975 27.5 11.875C27.5 10.1525 26.0975 8.74998 24.375 8.74998ZM24.375 13.75C23.3412 13.75 22.5 12.9088 22.5 11.875C22.5 10.8413 23.3412 10 24.375 10C25.4088 10 26.25 10.8413 26.25 11.875C26.25 12.9087 25.4088 13.75 24.375 13.75Z" fill="black"/>
<path d="M26.25 4.99998H25.1925C24.8062 4.99998 24.4275 4.8675 24.125 4.62498L19.2 0.684961C18.6475 0.24375 17.9538 0 17.2475 0H8.2125C7.16502 0 6.19377 0.52002 5.61252 1.39125L4.54875 2.98875C4.23 3.465 3.6975 3.75 3.12498 3.75C1.4025 3.75 0 5.1525 0 6.87498V9.375C0 11.0975 1.4025 12.5 3.12498 12.5C3.46998 12.5 3.75 12.22 3.75 11.875C3.75 11.53 3.46998 11.25 3.12498 11.25C2.09121 11.25 1.24998 10.4088 1.24998 9.375V6.87498C1.24998 5.84121 2.09121 4.99998 3.12498 4.99998C4.1175 4.99998 5.03748 4.5075 5.58873 3.68121L6.6525 2.08494C7.00125 1.56246 7.58502 1.24992 8.2125 1.24992H17.2475C17.6725 1.24992 18.0875 1.39617 18.42 1.66119L23.345 5.59992C23.8662 6.01869 24.5237 6.2499 25.1937 6.2499H26.25C28.0837 6.2499 28.75 8.11863 28.75 9.37488C28.75 10.6061 27.8075 11.2499 26.875 11.2499C26.53 11.2499 26.25 11.5299 26.25 11.8749C26.25 12.2199 26.53 12.4999 26.875 12.4999C28.6563 12.5 30 11.1562 30 9.375C30 7.25373 28.6863 4.99998 26.25 4.99998Z" fill="black"/>
<path d="M21.875 11.25H8.12502C7.78002 11.25 7.5 11.53 7.5 11.875C7.5 12.22 7.78002 12.5 8.12502 12.5H21.875C22.22 12.5 22.5001 12.22 22.5001 11.875C22.5001 11.53 22.22 11.25 21.875 11.25Z" fill="black"/>
<path d="M20.625 4.99997H15V3.12497C15 2.77997 14.72 2.49995 14.375 2.49995C14.03 2.49995 13.7499 2.77997 13.7499 3.12497V5.62499C13.7499 5.96999 14.03 6.25001 14.375 6.25001H20.625C20.97 6.25001 21.25 5.96999 21.25 5.62499C21.25 5.27999 20.97 4.99997 20.625 4.99997Z" fill="black"/>
<path d="M11.875 4.99998H7.88628L8.68503 3.405C8.83878 3.09627 8.7138 2.72127 8.40501 2.56623C8.09499 2.41248 7.72128 2.53623 7.56624 2.84625L6.31626 5.34627C6.21876 5.53875 6.23001 5.77002 6.34374 5.95377C6.45747 6.13752 6.65874 6.25002 6.87501 6.25002H11.875C12.22 6.25002 12.5 5.97 12.5 5.625C12.5 5.28 12.22 4.99998 11.875 4.99998Z" fill="black"/>
<path d="M16.875 7.5H15.625C15.28 7.5 15 7.78002 15 8.12502C15 8.47002 15.28 8.75004 15.625 8.75004H16.875C17.22 8.75004 17.5 8.47002 17.5 8.12502C17.5 7.78002 17.22 7.5 16.875 7.5Z" fill="black"/>
</svg>
